# xmcd
#
# Track frame offsets:
#	150
#	17645
#	33345
#	50150
#	69515
#	86282
#	102450
#	118820
#	135822
#	154312
#	171047
#	186452
#
# Disc length: 2739 seconds
#
# Revision: 3
# Processed by: cddbd v1.5.2PL0 Copyright (c) Steve Scherf et al.
# Submitted via: audiograbber 1.83.01
#
DISCID=9e0ab10c
DTITLE=Various Artist - Körgospel -92
DYEAR=1991
DGENRE=Gospel
TTITLE0=Ungdomskören Trofén, Gävle - Gospelsong
TTITLE1=Kyrie Eleison, Stockholm - Vad jag har
TTITLE2=Söderblandning, Stockholm - Jesus, du är källan
TTITLE3=Ungdomskören Trofén, Gävle - Sambalans
TTITLE4=Grenarna, N. Unnaryd - Herre, ge mig kraft
TTITLE5=Söderblandning, Stockholm - Kärlekens vindar
TTITLE6=Heureka, Skillingaryd - Tack
TTITLE7=Grenarna, N. Unnaryd - Du är vinden
TTITLE8=Gospelkören 12:59, Kumla - Utan några krav
TTITLE9=Kyrie Eleison, Stockholm - Guds rike
TTITLE10=Heureka, Skillingaryd - Undanflykter
TTITLE11=Gospelkören 12:59, Kumla - Vi vill gå ut
EXTD=YEAR: 1992
EXTT0=
EXTT1=
EXTT2=
EXTT3=
EXTT4=
EXTT5=
EXTT6=
EXTT7=
EXTT8=
EXTT9=
EXTT10=
EXTT11=
PLAYORDER=
